<svg xmlns="http://www.w3.org/2000/svg" xmlns:xlink="http://www.w3.org/1999/xlink" width="500" zoomAndPan="magnify"
     viewBox="0 0 375 374.999991" height="500" preserveAspectRatio="xMidYMid meet" version="1.0">
    <defs>
        <g/>
        <clipPath id="6f26422e31">
            <path d="M 0 68 L 375 68 L 375 308.5 L 0 308.5 Z M 0 68 " clip-rule="nonzero"/>
        </clipPath>
    </defs>
    <g clip-path="url(#6f26422e31)">
        <path fill="#ffffff"
              d="M 266.046875 68.320312 C 253.941406 69.789062 242.058594 78.125 235.78125 89.550781 L 235.238281 90.539062 L 235.015625 89.882812 C 233.859375 86.480469 230.125 84.90625 225.898438 86.039062 C 225.382812 86.179688 224.609375 86.25 223.703125 86.242188 C 212.371094 86.132812 202.863281 98.386719 202.886719 113.0625 C 202.90625 125.929688 210.320312 135.496094 220.285156 135.5 C 221.792969 135.5 221.773438 135.273438 220.230469 134.941406 C 218.882812 134.652344 217.285156 134.125 216.644531 133.757812 C 216.269531 133.542969 216.242188 133.503906 216.511719 133.5625 C 218.355469 133.972656 223.980469 133.972656 225.597656 133.566406 C 227.484375 133.089844 226.3125 132.535156 222.21875 131.972656 C 216.007812 131.113281 212.945312 129.835938 210.554688 127.097656 C 206.226562 122.144531 205.824219 114.820312 209.460938 107.207031 C 210.386719 105.261719 212.589844 101.699219 212.335938 102.542969 C 210.546875 108.582031 212.226562 119.363281 215.492188 122.828125 C 216.425781 123.820312 217.21875 123.851562 216.527344 122.871094 C 212.203125 116.742188 212.988281 100.667969 217.835938 96.1875 C 220.472656 93.746094 227.683594 89.246094 228.539062 89.503906 C 228.699219 89.554688 229.4375 89.882812 230.183594 90.230469 C 232.882812 91.496094 233.464844 91.039062 231.511719 89.195312 C 231.105469 88.8125 230.820312 88.496094 230.875 88.496094 C 231.179688 88.496094 232.285156 89.386719 233.03125 90.234375 C 233.5 90.769531 234.027344 91.351562 234.195312 91.53125 L 234.503906 91.855469 L 233.636719 93.871094 C 230.460938 101.265625 228.859375 111.382812 229.683594 118.855469 C 229.769531 119.625 229.894531 121.304688 229.960938 122.585938 C 230.027344 123.867188 230.179688 125.332031 230.292969 125.847656 C 230.410156 126.359375 230.535156 126.9375 230.578125 127.128906 C 230.621094 127.328125 230.507812 127.953125 230.3125 128.59375 C 229.1875 132.269531 224.804688 136.613281 217.003906 141.773438 L 214.636719 143.339844 L 214.109375 142.765625 C 213.527344 142.132812 211.230469 140.929688 209.53125 140.363281 C 204.425781 138.660156 200.347656 139.523438 188.949219 144.722656 C 185.605469 146.25 183.328125 146.980469 180.382812 147.476562 L 179.472656 147.628906 L 178.050781 146.84375 C 177.269531 146.410156 174.234375 144.851562 171.304688 143.375 C 159.027344 137.191406 153.449219 132.796875 137.21875 116.523438 C 127.09375 106.375 124.226562 103.691406 119.820312 100.246094 C 118.011719 98.828125 115.753906 97.285156 115.496094 97.285156 C 115.125 97.285156 115.34375 97.546875 116.613281 98.609375 C 119.714844 101.210938 125.285156 106.816406 131.710938 113.792969 C 146.328125 129.671875 156.378906 138.359375 166.179688 143.582031 C 166.875 143.953125 169.480469 145.289062 171.972656 146.550781 C 176.089844 148.640625 180.292969 150.898438 180.292969 151.019531 C 180.292969 151.046875 179.910156 150.898438 179.441406 150.6875 C 171.160156 146.96875 155.867188 146.09375 147.671875 148.863281 L 145.992188 149.429688 L 145.332031 149.125 C 144.96875 148.957031 143.265625 148.363281 141.542969 147.804688 C 115.09375 139.207031 102.726562 132.835938 90.148438 121.3125 C 87.703125 119.078125 85.207031 116.664062 84.042969 115.410156 C 82.6875 113.953125 82.421875 113.742188 82.421875 114.121094 C 82.421875 114.917969 88.144531 121.796875 90.871094 124.273438 C 91.242188 124.613281 92.203125 125.503906 93.007812 126.253906 C 99.667969 132.460938 108.648438 138.25 118.082031 142.417969 C 124.585938 145.292969 137.28125 149.957031 141.496094 151.023438 L 142.445312 151.265625 L 141.296875 152.03125 C 138.851562 153.65625 137.183594 155.144531 132.15625 160.191406 C 126.996094 165.371094 125.933594 166.308594 124.316406 167.128906 C 121.636719 168.480469 119.714844 167.21875 110.917969 158.316406 C 97.9375 145.183594 93.132812 139 80.425781 119.054688 C 74.367188 109.554688 71.792969 105.734375 66.453125 98.351562 C 62.699219 93.160156 58.113281 88.480469 55.605469 87.285156 C 54.738281 86.871094 54.332031 86.914062 54.9375 87.351562 C 56.117188 88.210938 58.523438 91.148438 61.605469 95.488281 C 62.75 97.097656 63.945312 98.75 64.257812 99.15625 C 65.402344 100.652344 70.066406 107.929688 77.414062 119.695312 C 91.003906 141.460938 96.71875 148.773438 110.253906 161.710938 C 122.144531 173.082031 123.164062 173.09375 134.152344 162.0625 C 140.277344 155.910156 142.644531 154 146.273438 152.273438 C 152.15625 149.46875 160.179688 148.773438 169.171875 150.289062 C 173.777344 151.0625 180.160156 153.125 180.160156 153.839844 C 180.160156 153.972656 180.253906 154.21875 180.371094 154.382812 C 180.636719 154.761719 180.6875 154.773438 177.429688 153.734375 C 176.113281 153.316406 174.613281 152.847656 174.097656 152.695312 C 171.140625 151.820312 168.363281 151.578125 165.3125 151.929688 C 161.316406 152.390625 158.050781 152.316406 156.351562 151.730469 C 155.273438 151.359375 154.753906 151.390625 154.582031 151.839844 C 154.167969 152.929688 157.441406 154.355469 162.449219 155.269531 C 165.53125 155.835938 166.316406 156.054688 168.398438 156.953125 C 171.65625 158.355469 172.777344 158.722656 176.230469 159.535156 C 179.484375 160.300781 179.300781 160.238281 179.324219 160.5625 C 179.355469 160.960938 179.976562 161.554688 180.753906 161.929688 L 181.425781 162.253906 L 180.523438 162.257812 C 178.191406 162.273438 173.121094 161.191406 165.578125 159.070312 C 156.621094 156.550781 153.105469 155.859375 149.066406 155.824219 C 146.890625 155.804688 146.070312 155.910156 146.070312 156.210938 C 146.070312 156.433594 146.191406 156.464844 148.222656 156.726562 C 151.292969 157.121094 154.839844 158.066406 161.984375 160.402344 C 168.667969 162.582031 171.351562 163.300781 175.445312 163.988281 C 177.597656 164.351562 177.808594 164.4375 178.011719 164.996094 C 178.105469 165.25 178.480469 165.785156 178.847656 166.191406 L 179.519531 166.925781 L 178.671875 166.925781 C 178.203125 166.925781 176.867188 167.046875 175.699219 167.191406 C 171.121094 167.765625 168.238281 167.257812 151.863281 162.984375 C 148.113281 162.003906 145.800781 162.074219 145.699219 163.164062 C 145.644531 163.707031 145.675781 163.722656 148.734375 164.40625 C 150.015625 164.691406 152.683594 165.371094 154.660156 165.914062 C 156.640625 166.457031 159.367188 167.148438 160.722656 167.449219 C 169.359375 169.390625 169.332031 169.382812 170.039062 170.058594 C 170.371094 170.371094 170.878906 170.789062 171.167969 170.980469 L 171.699219 171.335938 L 170.636719 171.253906 C 168.84375 171.109375 166.835938 170.683594 163.472656 169.726562 C 157.480469 168.023438 156.335938 167.792969 153.863281 167.804688 C 150.1875 167.824219 147.476562 169.023438 144.917969 171.765625 C 143.40625 173.386719 142.511719 174.777344 139.078125 180.839844 C 133.734375 190.285156 129.878906 192.941406 124.953125 190.574219 C 123.359375 189.8125 121.890625 188.5625 118.042969 184.691406 C 111.59375 178.203125 108.722656 176.324219 97.402344 171.1875 C 87.714844 166.789062 81.621094 163.242188 74.566406 157.894531 C 70.796875 155.035156 68.707031 153.289062 60.785156 146.371094 C 55.089844 141.394531 55.210938 141.496094 52.929688 139.683594 C 47.464844 135.332031 42.394531 131.847656 38.238281 129.585938 C 35.820312 128.269531 35.855469 128.523438 38.359375 130.503906 C 42.121094 133.472656 43.804688 134.820312 46.003906 136.621094 C 49.742188 139.671875 57.214844 146.144531 61.378906 149.933594 C 75.480469 162.753906 82.089844 167.277344 96.605469 174.046875 C 106.949219 178.871094 110.449219 181.175781 115.515625 186.5 C 121.332031 192.613281 124.328125 194.496094 128.230469 194.480469 C 129.144531 194.476562 129.460938 194.4375 130.726562 194.152344 L 131.160156 194.054688 L 130.316406 195.4375 C 129.855469 196.199219 128.722656 198.195312 127.800781 199.882812 C 115.398438 222.597656 103.765625 232.015625 85.109375 234.445312 C 79.933594 235.121094 75.402344 234.945312 64.246094 233.636719 C 48.972656 231.847656 38.421875 232.015625 26.699219 234.238281 C 13.539062 236.734375 3.15625 241.480469 0.605469 246.167969 C 0.03125 247.222656 0.34375 247.179688 1.441406 246.058594 C 5.292969 242.132812 15.578125 238.339844 26.964844 236.648438 C 39.210938 234.828125 48.359375 234.949219 64.914062 237.160156 C 67.332031 237.480469 69.667969 237.78125 70.105469 237.828125 C 71.824219 238.011719 71.820312 238.03125 70.035156 238.519531 C 54.300781 242.8125 42.144531 253.351562 33.898438 269.839844 C 31.328125 274.972656 29.117188 280.640625 29.683594 280.640625 C 29.851562 280.640625 30.113281 280.1875 31.828125 276.910156 C 41.019531 259.363281 49.71875 249.960938 61.957031 244.339844 C 63.917969 243.4375 67.910156 241.890625 68.273438 241.890625 C 68.300781 241.890625 67.792969 242.316406 67.148438 242.832031 C 54.652344 252.851562 44.046875 274.773438 41.195312 296.484375 C 40.976562 298.152344 40.789062 303.113281 40.929688 303.480469 C 41.101562 303.9375 41.378906 303.410156 41.539062 302.308594 C 42.9375 292.742188 44.902344 285.390625 48.765625 275.3125 C 55.636719 257.390625 65.710938 244.796875 76.976562 240.046875 C 78.160156 239.546875 78.589844 239.453125 82.605469 238.832031 C 84.996094 238.460938 87.054688 238.117188 87.183594 238.070312 C 87.851562 237.832031 87.117188 238.203125 85.953125 238.695312 C 65.636719 247.269531 55.058594 273.566406 61.46875 299.546875 C 62.363281 303.164062 64.234375 308.160156 64.839844 308.53125 C 65.242188 308.78125 65.179688 308.265625 64.570312 306.40625 C 58.925781 289.15625 61.671875 268.265625 71.382812 254.652344 C 76.683594 247.21875 80.992188 243.953125 90.746094 239.964844 C 101.65625 235.507812 105.136719 233.59375 108.527344 230.1875 C 109.519531 229.191406 110.914062 227.90625 111.621094 227.335938 C 118.421875 221.832031 124.132812 213.984375 130.691406 201.148438 C 133.359375 195.921875 133.890625 195.042969 136.082031 192.226562 C 138.738281 188.808594 139.808594 187.179688 142.679688 182.171875 C 146.492188 175.527344 148.269531 173.585938 151.785156 172.210938 C 153.695312 171.46875 160.953125 171.882812 166.910156 173.078125 C 169.644531 173.625 173.085938 173.542969 174.597656 172.890625 C 175.882812 172.339844 176.246094 170.859375 175.335938 169.886719 C 175.179688 169.722656 175.109375 169.585938 175.175781 169.582031 C 175.246094 169.578125 175.570312 169.515625 175.898438 169.445312 C 176.226562 169.371094 177.726562 169.265625 179.226562 169.214844 C 182.375 169.105469 182.671875 169.015625 183.1875 167.992188 C 183.792969 166.800781 183.304688 165.644531 181.761719 164.617188 L 181.433594 164.394531 L 181.960938 164.394531 C 183.785156 164.382812 185.03125 162.429688 184.097656 161.050781 C 183.316406 159.902344 181.460938 159.136719 177.074219 158.144531 C 174.117188 157.476562 173.03125 157.128906 170.320312 155.972656 C 169.105469 155.453125 167.539062 154.832031 166.84375 154.589844 L 165.578125 154.152344 L 166.644531 154.125 C 170.371094 154.03125 171.835938 154.269531 176.828125 155.789062 C 182.625 157.554688 184.941406 157.628906 185.507812 156.0625 C 185.640625 155.6875 185.734375 155.605469 185.949219 155.660156 C 186.097656 155.699219 186.9375 155.816406 187.816406 155.929688 C 189.308594 156.113281 190.742188 156.226562 198.203125 156.742188 C 209.242188 157.503906 215.445312 159.582031 233.488281 168.5625 C 245.480469 174.535156 250.445312 176.738281 260.519531 180.574219 C 277.367188 186.992188 285.234375 188.507812 300.597656 188.3125 C 308.964844 188.207031 312.097656 188.417969 315.0625 189.289062 C 315.941406 189.542969 316.347656 189.695312 319.527344 190.941406 C 323.179688 192.371094 323.886719 191.894531 321.0625 189.914062 C 316.296875 186.574219 312.144531 185.703125 300.109375 185.53125 L 298.023438 185.5 L 300.027344 184.570312 C 306.25 181.679688 310.566406 178.652344 311.261719 176.695312 L 311.5 176.023438 L 312.375 176.679688 C 312.855469 177.039062 313.507812 177.492188 313.820312 177.6875 C 319.585938 181.273438 323.839844 186.800781 328.289062 196.484375 C 333.222656 207.226562 333.378906 210.921875 329.023438 213.742188 C 318.828125 220.339844 288.164062 221.074219 252.464844 215.585938 C 244 214.28125 238.730469 213.226562 225.03125 210.085938 C 204.328125 205.335938 196.917969 204.789062 186.949219 207.277344 C 178.851562 209.296875 170.777344 214.59375 168.050781 219.679688 C 167.148438 221.359375 167.011719 223.265625 167.863281 222.25 C 168.050781 222.03125 168.46875 221.539062 168.796875 221.152344 C 175.875 212.820312 190.953125 208.28125 205.195312 210.191406 C 210.574219 210.914062 225.613281 214.035156 224.832031 214.265625 C 214.296875 217.398438 207.875 222.371094 199.4375 233.921875 C 198.828125 234.753906 197.964844 235.914062 197.519531 236.503906 C 196.167969 238.273438 192.742188 243.6875 192.066406 245.121094 C 191.5 246.316406 192.59375 245.730469 194.117188 244.023438 C 195.519531 242.449219 198.257812 239.183594 199.136719 238.03125 C 201.863281 234.464844 207.1875 228.679688 210.488281 225.695312 C 216.105469 220.625 222.222656 217.695312 229.933594 216.386719 C 232.566406 215.9375 232.476562 215.929688 237.015625 216.90625 C 266.703125 223.285156 300.695312 225.101562 319.375 221.308594 C 334.128906 218.308594 338.417969 212.890625 334.667969 201.996094 C 334.269531 200.832031 333.90625 199.769531 333.859375 199.628906 C 333.664062 199.007812 340.3125 200.402344 345.273438 202.019531 C 351.410156 204.019531 362.984375 212.113281 372.816406 221.273438 C 373.351562 221.773438 373.84375 222.183594 373.90625 222.183594 C 374.980469 222.183594 372.199219 218.128906 368.574219 214.414062 C 356.824219 202.363281 344.035156 195.175781 333.660156 194.792969 L 331.703125 194.71875 L 330.382812 192.242188 C 326.640625 185.21875 323.246094 180.960938 319.292969 178.339844 C 317.457031 177.125 313.695312 175.1875 312.496094 174.847656 L 311.621094 174.597656 L 311.375 173.871094 C 310.164062 170.304688 302.046875 161.625 300.328125 162.054688 C 299.589844 162.238281 300.238281 163.523438 302.746094 166.859375 C 304.726562 169.492188 306.597656 172.152344 307.335938 173.382812 C 308.582031 175.464844 307.285156 176.902344 300.800781 180.636719 C 297.429688 182.578125 295.855469 183.636719 294.890625 184.617188 L 294.105469 185.410156 L 293.359375 185.347656 C 289.53125 185.027344 287.578125 184.789062 284.734375 184.289062 L 283.515625 184.074219 L 283.710938 183.492188 C 283.972656 182.734375 284.414062 182.378906 286.207031 181.480469 C 291.144531 179.007812 292.007812 177.398438 290.847656 172.835938 C 290.109375 169.9375 290.011719 168.511719 290.433594 166.832031 C 290.554688 166.347656 290.753906 166.128906 291.925781 165.171875 C 298.910156 159.480469 301.40625 153.648438 300.472656 145.21875 C 300.152344 142.34375 300.109375 142.5 301.464844 141.722656 C 307.476562 138.277344 310.640625 131.871094 312.242188 119.917969 C 312.988281 114.328125 312.867188 111.179688 311.65625 104.429688 L 311.585938 104.050781 L 313.015625 104.105469 C 317.929688 104.28125 319.3125 107.390625 316.695312 112.378906 C 313.074219 119.28125 312.753906 120.746094 313.789062 125.582031 C 314.691406 129.800781 314.160156 132.441406 311.933594 134.808594 C 309.875 136.992188 310.023438 137.605469 312.3125 136.386719 C 315.679688 134.597656 316.902344 130.855469 316 125.074219 C 315.34375 120.878906 315.625 119.679688 318.339844 114.960938 C 320.320312 111.527344 320.835938 110 320.746094 107.851562 C 320.59375 104.285156 317.398438 101.867188 312.960938 101.972656 L 311.386719 102.011719 L 311.152344 100.179688 C 310.664062 96.277344 309.902344 93.621094 308.398438 90.558594 C 301.269531 76.058594 282.6875 66.300781 266.046875 68.320312 M 275.367188 71.664062 C 293.210938 73.761719 306.296875 85.445312 308.363281 101.121094 L 308.613281 103.023438 L 308.335938 103.167969 C 306.519531 104.101562 305.308594 106.082031 307.019531 105.320312 C 308.578125 104.625 308.777344 104.582031 308.851562 104.914062 C 308.988281 105.542969 309.585938 108.980469 309.585938 109.136719 C 309.585938 109.222656 309.308594 108.988281 308.96875 108.609375 C 307.710938 107.210938 305.421875 106.507812 304.652344 107.28125 C 304.285156 107.648438 304.472656 107.867188 305.335938 108.074219 C 306.730469 108.40625 307.933594 109.96875 308.265625 111.863281 C 308.53125 113.398438 308.320312 114.769531 307.265625 118.324219 C 306.171875 122 306.320312 123.675781 307.890625 125.5625 L 308.429688 126.210938 L 308.191406 127.226562 C 306.832031 133.015625 304.207031 137.039062 300.285156 139.351562 C 297.859375 140.78125 297.496094 141.386719 297.652344 143.726562 C 298.332031 153.820312 296.988281 157.066406 289.8125 162.679688 C 285.449219 166.089844 282.84375 167.535156 277.429688 169.542969 C 272.285156 171.453125 269.941406 172.425781 266.578125 174.058594 C 260.519531 177 261.128906 177.039062 252.0625 173.144531 C 246.730469 170.851562 247 171.003906 245.839844 169.640625 C 245.273438 168.972656 244.378906 167.921875 243.859375 167.308594 C 238.199219 160.652344 235.78125 154.050781 235.589844 144.753906 C 235.480469 139.355469 236.570312 133.082031 237.710938 132.5625 C 238.710938 132.109375 238.804688 131.167969 237.894531 130.714844 L 237.238281 130.390625 L 237.691406 130.238281 C 239.0625 129.777344 238.808594 127.460938 237.355469 127.1875 C 236.089844 126.949219 234.933594 128.234375 235.445312 129.308594 C 235.539062 129.507812 235.496094 129.488281 235.285156 129.242188 C 233 126.578125 232.699219 119.5625 234.699219 115.425781 C 236.78125 111.113281 241.273438 110.332031 242.660156 114.039062 C 243.273438 115.675781 243.332031 116.046875 243.335938 118.378906 C 243.339844 119.941406 243.386719 120.648438 243.496094 120.683594 C 243.847656 120.800781 244.628906 119.253906 244.824219 118.050781 C 244.964844 117.15625 245.101562 117.320312 245.683594 119.085938 C 246.941406 122.90625 246.394531 126.347656 244.003906 129.6875 C 242.84375 131.308594 244.683594 130.6875 246.007812 129.011719 C 247.703125 126.859375 248.53125 124.316406 248.433594 121.523438 C 248.363281 119.496094 248.367188 119.511719 247.125 114.929688 C 245.816406 110.105469 246.859375 108.734375 251.332031 109.394531 C 257.792969 110.34375 261.386719 108.179688 268.914062 98.800781 C 273.183594 93.480469 275.542969 91.25 278.496094 89.738281 C 286.917969 85.429688 297.476562 89.257812 300.398438 97.683594 C 301.714844 101.484375 303.03125 102.003906 302.738281 98.605469 C 301.796875 87.820312 286.769531 81.90625 276.1875 88.15625 C 273.410156 89.800781 270.734375 92.289062 267.023438 96.6875 C 259.765625 105.285156 257.269531 106.820312 251.429688 106.289062 C 248.265625 106.003906 247.117188 106.167969 245.769531 107.097656 C 244.804688 107.765625 243.808594 109.550781 243.808594 110.613281 C 243.808594 111.195312 243.632812 111.167969 242.972656 110.496094 L 242.359375 109.867188 L 242.777344 109.03125 C 245.042969 104.53125 249.425781 101.410156 256.878906 99.003906 C 266.769531 95.808594 273.15625 90.898438 276 84.300781 C 277.398438 81.066406 276.4375 81.511719 273.410156 85.5 C 268.601562 91.832031 264.546875 94.722656 256.46875 97.574219 C 248.628906 100.339844 244.136719 103.882812 242.289062 108.753906 C 241.925781 109.703125 241.953125 109.699219 240.765625 109.203125 C 238.144531 108.105469 234.726562 109.492188 232.605469 112.515625 C 231.839844 113.605469 231.839844 113.609375 232.160156 110.996094 C 235.222656 85.875 253.640625 69.109375 275.367188 71.664062 M 270.550781 75.582031 C 257.851562 77.035156 245.660156 86.125 237.253906 100.414062 C 235.617188 103.195312 234.070312 106.367188 234.257812 106.554688 C 234.457031 106.753906 234.765625 106.414062 235.558594 105.121094 C 245.238281 89.34375 255.726562 80.699219 268.242188 78.175781 C 276.527344 76.507812 283.03125 78.125 290.476562 83.699219 C 296.660156 88.328125 300.667969 89.863281 296.375 85.957031 C 287.09375 77.507812 279.695312 74.535156 270.550781 75.582031 M 274.5 79.460938 C 268.253906 79.847656 262.992188 83.023438 255.007812 91.226562 C 245.78125 100.699219 242.875 103.230469 238.929688 105.238281 C 237.292969 106.074219 237.25 106.648438 238.863281 106.144531 C 242.316406 105.058594 246.0625 102.125 253.394531 94.765625 C 258.570312 89.570312 259.695312 88.488281 261.375 87.097656 C 268.3125 81.347656 273.90625 79.867188 281.488281 81.769531 C 283.753906 82.335938 284.441406 82.226562 283.328125 81.472656 C 281.203125 80.03125 277.796875 79.253906 274.5 79.460938 M 218.714844 90.394531 C 217.386719 91.734375 216.175781 93.300781 215.445312 94.621094 C 215.148438 95.160156 214.351562 96.121094 213.25 97.273438 C 210.453125 100.195312 208.605469 102.675781 206.992188 105.675781 C 206.578125 106.441406 206.273438 106.953125 206.308594 106.804688 C 206.347656 106.660156 206.46875 106.171875 206.582031 105.722656 C 208.273438 99.027344 212.53125 93.003906 217.496094 90.285156 C 218.175781 89.914062 219.679688 89.21875 219.921875 89.164062 C 219.929688 89.164062 219.386719 89.714844 218.714844 90.394531 M 284.355469 94.683594 C 281.347656 95.238281 277.667969 97.40625 276.09375 99.554688 C 275.273438 100.675781 275.660156 100.691406 277.125 99.59375 C 281.558594 96.265625 286.234375 95.542969 290.449219 97.523438 C 291.679688 98.101562 292.570312 98.78125 294.707031 100.773438 C 296.960938 102.875 298.230469 103.710938 299.585938 103.988281 L 300.40625 104.152344 L 298.902344 104.78125 C 293.636719 106.976562 288.800781 107.847656 284.304688 107.414062 C 282.03125 107.191406 281.746094 107.539062 283.769531 108.058594 C 289.320312 109.472656 295.886719 108.316406 300.898438 105.042969 C 301.320312 104.765625 301.3125 104.777344 300.324219 106.207031 C 299.945312 106.753906 299.230469 107.953125 298.738281 108.871094 C 295.914062 114.105469 293.820312 115.914062 289.601562 116.757812 C 287.226562 117.234375 287 117.636719 288.90625 118.003906 C 293.324219 118.859375 296.90625 116.359375 299.953125 110.289062 C 300.425781 109.351562 301.300781 107.761719 301.894531 106.761719 C 303.515625 104.046875 304.128906 102.644531 304.128906 101.65625 C 304.128906 101.109375 303.988281 101.1875 303.460938 102.015625 C 303.089844 102.605469 302.941406 102.738281 302.730469 102.679688 C 302.582031 102.636719 301.875 102.488281 301.152344 102.34375 C 299.15625 101.953125 298.71875 101.695312 296.609375 99.691406 C 291.992188 95.304688 288.570312 93.90625 284.355469 94.683594 M 227.195312 95.03125 C 226.089844 95.222656 224.9375 95.882812 223.953125 96.882812 C 223.109375 97.742188 223.042969 97.78125 222.296875 97.855469 C 217.089844 98.394531 214.242188 106.65625 216.371094 115.050781 C 217.863281 120.9375 222.328125 127.902344 225.789062 129.742188 C 227.417969 130.609375 227.472656 130.105469 225.917969 128.53125 C 217.136719 119.65625 214.804688 104.589844 221.546875 100.324219 L 221.921875 100.085938 L 221.613281 101.003906 C 219.765625 106.511719 221.21875 113.863281 224.867188 117.476562 C 227.796875 120.378906 230.28125 121.269531 227.679688 118.484375 C 222.597656 113.050781 221.035156 106.339844 223.503906 100.546875 L 223.734375 100.015625 L 224.121094 100.480469 C 224.335938 100.738281 224.601562 101.277344 224.714844 101.679688 C 225.183594 103.375 225.226562 103.476562 225.507812 103.515625 C 226.648438 103.679688 226.414062 99.671875 225.222656 98.625 L 224.78125 98.238281 L 225.410156 97.652344 C 227.214844 95.964844 228.890625 95.703125 230.992188 96.777344 C 231.976562 97.285156 232.285156 97.183594 231.875 96.496094 C 231.203125 95.359375 229.089844 94.699219 227.195312 95.03125 M 304.410156 103.414062 C 301.445312 107.839844 301.152344 109.652344 302.707031 113.996094 C 303.847656 117.167969 303.582031 119.394531 301.582031 123.492188 C 299.851562 127.039062 300.144531 127.527344 302.28125 124.648438 C 305.527344 120.277344 305.996094 117.097656 304.101562 112.300781 C 302.953125 109.390625 303.0625 108.160156 304.851562 103.980469 C 305.960938 101.402344 305.851562 101.265625 304.410156 103.414062 M 309.71875 118.265625 C 309.492188 120.398438 309.015625 123.515625 308.917969 123.515625 C 308.625 123.515625 308.589844 121.722656 308.859375 120.429688 C 309.085938 119.339844 309.746094 116.976562 309.808594 117.035156 C 309.828125 117.058594 309.789062 117.609375 309.71875 118.265625 M 232.515625 130.757812 C 232.714844 131.007812 233.234375 131.449219 233.671875 131.742188 L 234.46875 132.273438 L 234.128906 132.773438 C 230.320312 138.371094 230.625 149.09375 234.851562 158.402344 C 235.398438 159.613281 236.089844 161.140625 236.386719 161.800781 C 237.019531 163.203125 238.007812 165.023438 238.832031 166.296875 C 239.152344 166.792969 239.414062 167.226562 239.414062 167.261719 C 239.414062 167.292969 236.972656 166.097656 233.988281 164.605469 C 218.519531 156.871094 210.644531 154.160156 202.058594 153.613281 C 200.902344 153.539062 199.9375 153.457031 199.910156 153.429688 C 199.882812 153.402344 200.324219 153.214844 200.894531 153.015625 C 213.515625 148.574219 229.609375 137.023438 231.832031 130.804688 C 232.050781 130.199219 232.070312 130.195312 232.515625 130.757812 M 209.1875 142.886719 C 209.859375 143.003906 210.632812 143.28125 211.542969 143.726562 L 212.898438 144.394531 L 210.472656 145.734375 C 203.59375 149.539062 198.074219 151.589844 191.414062 152.8125 L 189.15625 153.226562 L 187.488281 152.378906 C 184.863281 151.046875 181.917969 149.191406 182.234375 149.066406 C 182.375 149.011719 183.449219 148.746094 184.621094 148.472656 C 187.15625 147.886719 188.386719 147.488281 193.140625 145.722656 C 201.402344 142.660156 204.613281 142.089844 209.1875 142.886719 M 186.015625 154.308594 C 186.023438 154.652344 185.21875 154.335938 184.585938 153.746094 L 183.890625 153.097656 L 184.953125 153.652344 C 185.535156 153.957031 186.015625 154.253906 186.015625 154.308594 M 287.878906 168.789062 C 287.71875 169.613281 287.722656 171.613281 287.886719 172.628906 C 288.515625 176.5 288.5 176.539062 285.265625 178.117188 C 281.96875 179.726562 280.851562 180.941406 280.984375 182.773438 L 281.039062 183.53125 L 280.5 183.410156 C 277.144531 182.65625 264.246094 178.402344 264.511719 178.136719 C 264.558594 178.089844 266.792969 177.160156 269.839844 175.925781 C 270.792969 175.539062 273.457031 174.542969 275.765625 173.71875 C 281.839844 171.539062 284.597656 170.3125 287.21875 168.625 C 288.082031 168.066406 288.019531 168.050781 287.878906 168.789062 M 245.605469 225.65625 C 232.117188 226.398438 217.914062 231.152344 212.015625 236.898438 C 210.042969 238.820312 210.394531 238.988281 212.816406 237.28125 C 217.675781 233.859375 226.347656 230.714844 235.484375 229.054688 C 242.316406 227.816406 247.375 227.496094 258.523438 227.59375 C 266.246094 227.660156 268.839844 227.585938 268.839844 227.304688 C 268.839844 227.109375 268.734375 227.085938 266.511719 226.710938 C 261.554688 225.882812 251.097656 225.351562 245.605469 225.65625 M 254.792969 234.445312 C 252.503906 234.648438 250.0625 234.976562 248.402344 235.304688 C 243.90625 236.195312 242.601562 237.050781 246.355469 236.644531 C 250.707031 236.171875 259.082031 236.019531 261.652344 236.363281 C 261.90625 236.398438 263.105469 236.488281 264.316406 236.570312 C 269.523438 236.917969 279.957031 238.78125 284.78125 240.226562 C 287.890625 241.160156 292.085938 241.832031 292.230469 241.417969 C 292.480469 240.71875 284.457031 237.660156 279.027344 236.386719 C 272.226562 234.789062 261.011719 233.890625 254.792969 234.445312 M 181.027344 247.710938 C 165.144531 248.140625 153.910156 250.472656 130.425781 258.222656 C 119.652344 261.777344 116.96875 262.59375 111.25 264.0625 C 101.582031 266.546875 94.929688 267.703125 75.964844 270.195312 C 72.816406 270.609375 70.214844 270.972656 70.183594 271.003906 C 68.914062 272.191406 88.453125 270.988281 100.867188 269.113281 C 110.878906 267.597656 118.378906 265.667969 134.222656 260.535156 C 140.480469 258.507812 142.964844 257.722656 145.863281 256.875 C 160.445312 252.589844 172.191406 250.8125 185.886719 250.816406 C 193.503906 250.816406 197.582031 251.125 210.652344 252.691406 C 220.730469 253.898438 221.605469 252.707031 212.324219 250.421875 C 203.53125 248.253906 193.394531 247.375 181.027344 247.710938 M 234.820312 253.566406 C 224.132812 258.992188 215.25 260.585938 192.675781 261.128906 C 167.742188 261.726562 154.972656 264.59375 131.625 274.847656 C 122.613281 278.800781 119.730469 280 115.644531 281.480469 C 111.578125 282.953125 109.523438 283.453125 103.996094 284.292969 C 102.066406 284.589844 100.085938 285.035156 99.902344 285.222656 C 99.300781 285.824219 104.917969 286.257812 107.855469 285.835938 C 113.617188 285.011719 117.789062 283.523438 131.949219 277.246094 C 155.78125 266.675781 166.90625 264.050781 192.277344 263.003906 C 210.960938 262.230469 218.511719 261.019531 228.097656 257.246094 C 232.015625 255.699219 237.542969 252.773438 236.453125 252.816406 C 236.359375 252.820312 235.625 253.160156 234.820312 253.566406 "
              fill-opacity="1" fill-rule="evenodd"/>
    </g>
</svg>